<svg width="64" height="64" viewBox="0 0 64 64" fill="none" xmlns="http://www.w3.org/2000/svg">
  <rect x="2" y="2" width="60" height="60" rx="14" fill="#312E81"/>
  <rect x="2" y="2" width="60" height="60" rx="14" stroke="#1E1B4B" stroke-width="1"/>
  <path
    d="M22 16 H35 C40.5 16 44 19.2 44 23.8 C44 27.3 41.8 29.7 38.6 30.6 C42.6 31.3 45.2 33.9 45.2 38 C45.2 43 41.4 46 35.4 46 H22 V16 Z M27 28.5 H34.2 C37 28.5 38.8 27 38.8 24.5 C38.8 22 37 20.5 34.2 20.5 H27 V28.5 Z M27 41.5 H34.8 C38 41.5 40 39.8 40 37 C40 34.2 38 32.6 34.8 32.6 H27 V41.5 Z"
    fill="#FBBF24"
  />
  <rect x="14" y="50" width="36" height="2" rx="1" fill="#FBBF24" opacity="0.85"/>
</svg>
